# xmcd
#
# Track frame offsets:
#	150
#	20695
#	45502
#	66304
#	92104
#	117776
#	137491
#	158376
#	178866
#	198216
#	220521
#	237499
#
# Disc length: 3442 seconds
#
# Revision: 0
# Processed by: cddbd v1.5.1PL0 Copyright (c) Steve Scherf et al.
# Submitted via: dBpowerAMP V4.0
#
DISCID=9c0d700c
DTITLE=Sun - The Best Of Sun Volume One
DYEAR=1900
DGENRE=R&B
TTITLE0=Sun Is Here
TTITLE1=Dance, Let's Shake It Tonight
TTITLE2=Right Kind Of Magic
TTITLE3=Radiation Level
TTITLE4=Legs
TTITLE5=Irresistible
TTITLE6=Turn The Music Up
TTITLE7=True Love
TTITLE8=Fallout, On The Dance Floor
TTITLE9=Heart Break Hideaway
TTITLE10=Reggae Man
TTITLE11=Sun Is Here (Instrumental)
EXTD=
EXTT0=
EXTT1=
EXTT2=
EXTT3=
EXTT4=
EXTT5=
EXTT6=
EXTT7=
EXTT8=
EXTT9=
EXTT10=
EXTT11=
PLAYORDER=
